<svg width="202" height="41" viewBox="0 0 202 41" fill="none" xmlns="http://www.w3.org/2000/svg">
<g clip-path="url(#clip0_155_1228)">
<path fill-rule="evenodd" clip-rule="evenodd" d="M25.5557 11.9353C23.9112 10.8365 21.9778 10.25 20 10.25V0.25C23.9556 0.25 27.8224 1.42298 31.1114 3.62061C34.4004 5.81823 36.9638 8.94181 38.4776 12.5963C39.9913 16.2508 40.3874 20.2722 39.6157 24.1518C38.844 28.0314 36.9392 31.5951 34.1421 34.3921C31.3451 37.1892 27.7814 39.094 23.9018 39.8657C20.0222 40.6374 16.0008 40.2413 12.3463 38.7276C8.6918 37.2138 5.56823 34.6504 3.37061 31.3614C1.17298 28.0724 0 24.2056 0 20.25H10C10 22.2278 10.5865 24.1612 11.6853 25.8057C12.7841 27.4502 14.3459 28.7319 16.1732 29.4888C18.0004 30.2457 20.0111 30.4437 21.9509 30.0578C23.8907 29.672 25.6725 28.7196 27.0711 27.3211C28.4696 25.9225 29.422 24.1407 29.8078 22.2009C30.1937 20.2611 29.9957 18.2504 29.2388 16.4232C28.4819 14.5959 27.2002 13.0341 25.5557 11.9353Z" fill="white" fill-opacity="0.6"/>
<path fill-rule="evenodd" clip-rule="evenodd" d="M9.99999 0.250005C9.99999 1.56322 9.74134 2.86358 9.23879 4.07684C8.73624 5.29009 7.99965 6.39248 7.07106 7.32107C6.14248 8.24966 5.04009 8.98625 3.82683 9.4888C2.61357 9.99134 1.31321 10.25 4.3711e-07 10.25L0 20.25C2.62643 20.25 5.22715 19.7327 7.65367 18.7276C10.0802 17.7225 12.285 16.2493 14.1421 14.3921C15.9993 12.535 17.4725 10.3302 18.4776 7.90367C19.4827 5.47715 20 2.87643 20 0.25L9.99999 0.250005Z" fill="white" fill-opacity="0.6"/>
<path d="M125.619 14.7026H120.767V30.1149H125.619V14.7026Z" fill="white" fill-opacity="0.6"/>
<path d="M121.307 11.8166C121.814 12.324 122.448 12.5777 123.209 12.5777C123.97 12.5777 124.594 12.324 125.08 11.8166C125.567 11.2881 125.81 10.6538 125.81 9.91385C125.81 9.15277 125.567 8.51849 125.08 8.01111C124.594 7.50369 123.97 7.25 123.209 7.25C122.448 7.25 121.814 7.50369 121.307 8.01111C120.82 8.51849 120.577 9.15277 120.577 9.91385C120.577 10.6538 120.82 11.2881 121.307 11.8166Z" fill="white" fill-opacity="0.6"/>
<path d="M51.1562 30.1147V7.72559H56.1351V25.7384H66.0612V30.1147H51.1562Z" fill="white" fill-opacity="0.6"/>
<path fill-rule="evenodd" clip-rule="evenodd" d="M75.0274 30.4635C73.4418 30.4635 72.0042 30.1147 70.7145 29.417C69.446 28.6982 68.4418 27.7257 67.7018 26.4994C66.9619 25.2732 66.5919 23.899 66.5919 22.3768C66.5919 20.8546 66.9619 19.491 67.7018 18.2859C68.4418 17.0808 69.446 16.1294 70.7145 15.4318C71.983 14.7129 73.4207 14.3535 75.0274 14.3535C76.6342 14.3535 78.0718 14.7024 79.3403 15.4C80.6088 16.0977 81.6131 17.0597 82.353 18.2859C83.093 19.491 83.463 20.8546 83.463 22.3768C83.463 23.899 83.093 25.2732 82.353 26.4994C81.6131 27.7257 80.6088 28.6982 79.3403 29.417C78.0718 30.1147 76.6342 30.4635 75.0274 30.4635ZM75.0274 26.0555C75.7251 26.0555 76.3382 25.9075 76.8668 25.6115C77.3953 25.2944 77.797 24.861 78.0718 24.3113C78.3678 23.7405 78.5158 23.0956 78.5158 22.3768C78.5158 21.658 78.3678 21.0343 78.0718 20.5058C77.7758 19.9561 77.3636 19.5333 76.835 19.2373C76.3276 18.9201 75.7251 18.7616 75.0274 18.7616C74.3509 18.7616 73.7484 18.9201 73.2198 19.2373C72.6913 19.5333 72.279 19.9561 71.983 20.5058C71.687 21.0555 71.5391 21.6897 71.5391 22.4085C71.5391 23.1062 71.687 23.7405 71.983 24.3113C72.279 24.861 72.6913 25.2944 73.2198 25.6115C73.7484 25.9075 74.3509 26.0555 75.0274 26.0555Z" fill="white" fill-opacity="0.6"/>
<path fill-rule="evenodd" clip-rule="evenodd" d="M87.3057 36.1402C88.5953 36.7321 90.0858 37.0281 91.7772 37.0281C93.4262 37.0281 94.8956 36.7004 96.1852 36.045C97.4749 35.3896 98.4896 34.4806 99.2296 33.3178C99.9695 32.155 100.34 30.7808 100.34 29.1951V14.7025H95.5826V15.738C95.2288 15.4402 94.827 15.1902 94.3776 14.9879C93.553 14.5862 92.6122 14.3853 91.5552 14.3853C90.1387 14.3853 88.8807 14.7236 87.7814 15.4001C86.6819 16.0555 85.8152 16.9646 85.1809 18.1274C84.5466 19.2691 84.2296 20.5587 84.2296 21.9964C84.2296 23.4129 84.5466 24.7025 85.1809 25.8653C85.8152 27.0281 86.6819 27.9478 87.7814 28.6243C88.8807 29.3008 90.1387 29.6391 91.5552 29.6391C92.5911 29.6391 93.5319 29.4383 94.3776 29.0366C94.7872 28.842 95.1572 28.6127 95.4875 28.3486V29.322C95.4875 30.4002 95.1387 31.2353 94.441 31.8273C93.7645 32.4193 92.8237 32.7152 91.6186 32.7152C90.6461 32.7152 89.811 32.5461 89.1133 32.2078C88.4368 31.8696 87.8236 31.3727 87.2739 30.7173L84.293 33.6983C85.0329 34.7554 86.0372 35.5694 87.3057 36.1402ZM94.219 24.8822C93.7327 25.1782 93.1514 25.3262 92.4748 25.3262C91.7983 25.3262 91.2063 25.1782 90.6989 24.8822C90.2126 24.5862 89.8321 24.1845 89.5573 23.6771C89.2824 23.1486 89.145 22.5883 89.145 21.9964C89.145 21.3621 89.2824 20.7913 89.5573 20.2839C89.8321 19.7765 90.2232 19.3748 90.7306 19.0788C91.238 18.7828 91.8194 18.6348 92.4748 18.6348C93.1514 18.6348 93.7327 18.7828 94.219 19.0788C94.7264 19.3748 95.1069 19.7765 95.3607 20.2839C95.6355 20.7913 95.7729 21.3621 95.7729 21.9964C95.7729 22.6306 95.6355 23.2014 95.3607 23.7088C95.1069 24.1951 94.7264 24.5862 94.219 24.8822Z" fill="white" fill-opacity="0.6"/>
<path fill-rule="evenodd" clip-rule="evenodd" d="M110.551 30.4635C108.965 30.4635 107.527 30.1147 106.238 29.417C104.969 28.6982 103.965 27.7257 103.225 26.4994C102.485 25.2732 102.115 23.899 102.115 22.3768C102.115 20.8546 102.485 19.491 103.225 18.2859C103.965 17.0808 104.969 16.1294 106.238 15.4318C107.506 14.7129 108.944 14.3535 110.551 14.3535C112.157 14.3535 113.595 14.7024 114.863 15.4C116.132 16.0977 117.136 17.0597 117.876 18.2859C118.616 19.491 118.986 20.8546 118.986 22.3768C118.986 23.899 118.616 25.2732 117.876 26.4994C117.136 27.7257 116.132 28.6982 114.863 29.417C113.595 30.1147 112.157 30.4635 110.551 30.4635ZM110.551 26.0555C111.248 26.0555 111.861 25.9075 112.39 25.6115C112.918 25.2944 113.32 24.861 113.595 24.3113C113.891 23.7405 114.039 23.0956 114.039 22.3768C114.039 21.658 113.891 21.0343 113.595 20.5058C113.299 19.9561 112.887 19.5333 112.358 19.2373C111.851 18.9201 111.248 18.7616 110.551 18.7616C109.874 18.7616 109.271 18.9201 108.743 19.2373C108.214 19.5333 107.802 19.9561 107.506 20.5058C107.21 21.0555 107.062 21.6897 107.062 22.4085C107.062 23.1062 107.21 23.7405 107.506 24.3113C107.802 24.861 108.214 25.2944 108.743 25.6115C109.271 25.9075 109.874 26.0555 110.551 26.0555Z" fill="white" fill-opacity="0.6"/>
<path fill-rule="evenodd" clip-rule="evenodd" d="M137.281 30.4319C136.246 30.4319 135.294 30.2311 134.427 29.8294C133.971 29.618 133.559 29.3656 133.191 29.0722V36.6159H128.402V14.7025H133.254V15.7662C133.606 15.4783 133.997 15.2294 134.427 15.0196C135.294 14.5967 136.246 14.3853 137.281 14.3853C138.74 14.3853 140.03 14.7342 141.15 15.4319C142.292 16.1295 143.18 17.0809 143.814 18.286C144.47 19.4911 144.797 20.8653 144.797 22.4086C144.797 23.952 144.47 25.3262 143.814 26.5313C143.18 27.7364 142.292 28.6877 141.15 29.3854C140.03 30.0831 138.74 30.4319 137.281 30.4319ZM136.394 26.0556C137.091 26.0556 137.694 25.897 138.201 25.5799C138.73 25.2628 139.142 24.8293 139.438 24.2797C139.734 23.73 139.882 23.1063 139.882 22.4086C139.882 21.6898 139.734 21.0556 139.438 20.5059C139.142 19.9562 138.73 19.5334 138.201 19.2374C137.694 18.9202 137.102 18.7617 136.425 18.7617C135.749 18.7617 135.146 18.9202 134.618 19.2374C134.11 19.5334 133.709 19.9562 133.413 20.5059C133.117 21.0556 132.969 21.6898 132.969 22.4086C132.969 23.1063 133.106 23.73 133.381 24.2797C133.677 24.8293 134.089 25.2628 134.618 25.5799C135.146 25.897 135.738 26.0556 136.394 26.0556Z" fill="white" fill-opacity="0.6"/>
<path d="M149.546 30.1463C150.434 30.3789 151.332 30.4951 152.241 30.4951C154.165 30.4951 155.687 30.0512 156.808 29.1632C157.949 28.2753 158.52 27.0808 158.52 25.5797C158.52 24.6072 158.341 23.8249 157.981 23.233C157.622 22.6199 157.157 22.1336 156.586 21.7742C156.015 21.4148 155.412 21.1293 154.778 20.9179C154.144 20.7065 153.541 20.5268 152.971 20.3788C152.4 20.2308 151.935 20.0617 151.575 19.8714C151.216 19.6811 151.036 19.4274 151.036 19.1103C151.036 18.8143 151.174 18.5923 151.448 18.4443C151.723 18.2752 152.135 18.1907 152.685 18.1907C153.256 18.1907 153.837 18.3069 154.429 18.5395C155.042 18.772 155.592 19.1738 156.078 19.7446L158.837 16.9539C158.14 16.0659 157.231 15.3999 156.11 14.956C155.011 14.4909 153.806 14.2583 152.495 14.2583C151.248 14.2583 150.159 14.4697 149.229 14.8925C148.298 15.3154 147.579 15.8968 147.072 16.6367C146.565 17.3555 146.311 18.2118 146.311 19.2055C146.311 20.1357 146.491 20.9074 146.85 21.5205C147.209 22.1124 147.675 22.5776 148.245 22.9158C148.816 23.2541 149.419 23.5184 150.053 23.7086C150.687 23.8989 151.29 24.0786 151.861 24.2478C152.431 24.3958 152.897 24.5755 153.256 24.7869C153.637 24.9772 153.827 25.2626 153.827 25.6431C153.827 25.9391 153.668 26.1716 153.351 26.3408C153.055 26.5099 152.622 26.5945 152.051 26.5945C151.226 26.5945 150.465 26.4465 149.768 26.1505C149.07 25.8334 148.467 25.4 147.96 24.8503L145.201 27.641C145.73 28.2118 146.364 28.7193 147.104 29.1632C147.865 29.586 148.679 29.9137 149.546 30.1463Z" fill="white" fill-opacity="0.6"/>
<path d="M167.368 30.4637C165.952 30.4637 164.694 30.1783 163.595 29.6075C162.516 29.0155 161.671 28.2121 161.058 27.1973C160.444 26.1614 160.138 24.9775 160.138 23.6455V14.7026H164.99V23.5821C164.99 24.1106 165.074 24.5652 165.244 24.9457C165.434 25.3263 165.709 25.6223 166.068 25.8337C166.428 26.0451 166.861 26.1508 167.368 26.1508C168.087 26.1508 168.658 25.9288 169.081 25.4848C169.504 25.0197 169.715 24.3855 169.715 23.5821V14.7026H174.567V23.6138C174.567 24.9669 174.261 26.1614 173.647 27.1973C173.034 28.2121 172.189 29.0155 171.11 29.6075C170.032 30.1783 168.785 30.4637 167.368 30.4637Z" fill="white" fill-opacity="0.6"/>
<path d="M181.831 14.7025H176.979V30.1148H181.831V21.1084C181.831 20.5799 181.937 20.1359 182.148 19.7765C182.381 19.4171 182.688 19.1422 183.068 18.952C183.449 18.7405 183.882 18.6348 184.368 18.6348C185.066 18.6348 185.647 18.8568 186.112 19.3008C186.599 19.7236 186.842 20.3262 186.842 21.1084V30.1148H191.694V21.1084C191.694 20.5799 191.8 20.1359 192.011 19.7765C192.244 19.4171 192.55 19.1422 192.931 18.952C193.311 18.7405 193.745 18.6348 194.231 18.6348C194.929 18.6348 195.51 18.8568 195.975 19.3008C196.461 19.7236 196.704 20.3262 196.704 21.1084V30.1148H201.557V20.5693C201.557 19.2797 201.282 18.1803 200.732 17.2712C200.203 16.3409 199.474 15.6327 198.544 15.1465C197.635 14.639 196.588 14.3853 195.404 14.3853C194.199 14.3853 193.11 14.6496 192.138 15.1782C191.506 15.5149 190.954 15.9495 190.481 16.4819C190.04 15.925 189.504 15.4693 188.871 15.1147C188.026 14.6285 187.064 14.3853 185.986 14.3853C184.844 14.3853 183.819 14.6285 182.91 15.1147C182.514 15.317 182.155 15.5593 181.831 15.8416V14.7025Z" fill="white" fill-opacity="0.6"/>
</g>
<defs>
<clipPath id="clip0_155_1228">
<rect width="202" height="40" fill="white" transform="translate(0 0.25)"/>
</clipPath>
</defs>
</svg>
