<svg width="100" height="41" viewBox="0 0 100 41" fill="none" xmlns="http://www.w3.org/2000/svg">
<path d="M4.77008 4.485C5.03008 3.251 6.26008 2.25 7.51308 2.25H14.3251L8.66008 29.073H1.84808C0.59408 29.073 -0.21192 28.073 0.04908 26.838L4.77008 4.485ZM27.4771 4.485C27.7381 3.251 28.9671 2.25 30.2201 2.25H37.0321L31.3671 29.073H24.5551C23.3011 29.073 22.4951 28.073 22.7561 26.838L27.4771 4.485ZM72.8921 4.485C73.1521 3.251 74.3801 2.25 75.6351 2.25H82.4471L76.7821 29.073H69.9691C68.7151 29.073 67.9101 28.073 68.1711 26.838L72.8921 4.485ZM39.3031 2.25H46.1151C47.3691 2.25 48.1751 3.25 47.9141 4.485L43.1931 26.838C42.9331 28.073 41.7041 29.073 40.4501 29.073H33.6381L39.3031 2.25ZM84.7181 2.25H91.5301C92.7841 2.25 93.5901 3.25 93.3291 4.485L88.6071 26.838C88.3471 28.073 87.1191 29.073 85.8651 29.073H79.0521L84.7181 2.25ZM50.1851 4.485C50.4451 3.251 51.6731 2.25 52.9271 2.25H59.7401L54.0741 29.073H47.2621C46.0081 29.073 45.2021 28.073 45.4641 26.838L50.1841 4.485H50.1851ZM62.0101 2.25H68.8231C70.0771 2.25 70.8821 3.25 70.6211 4.485L63.5401 38.015C63.2781 39.249 62.0501 40.25 60.7961 40.25H53.9831L62.0101 2.25ZM12.8191 20.132H21.9021L20.4861 26.838C20.2251 28.073 18.9961 29.073 17.7431 29.073H10.9301L12.8181 20.133L12.8191 20.132ZM44.5201 31.309H53.6021L51.7141 40.25H44.9021C43.6471 40.25 42.8421 39.25 43.1031 38.015L44.5201 31.309ZM69.1741 33.388L68.0241 38.834C67.9741 39.068 67.8961 39.132 67.6581 39.132H67.1351C66.8971 39.132 66.8451 39.068 66.8951 38.834L68.0451 33.388C68.0951 33.155 68.1731 33.09 68.4111 33.09H68.9341C69.1721 33.09 69.2241 33.155 69.1741 33.388ZM70.6861 37.062H70.5791C70.4651 37.062 70.4251 37.094 70.4021 37.207L70.0581 38.834C70.0081 39.068 69.9291 39.132 69.6921 39.132H69.1681C68.9311 39.132 68.8791 39.068 68.9281 38.834L70.0781 33.388C70.1281 33.155 70.2081 33.09 70.4451 33.09H71.5251C72.7691 33.09 73.2401 33.533 73.0101 34.62L72.8181 35.531C72.5881 36.619 71.9301 37.062 70.6861 37.062ZM71.0021 34.363L70.7021 35.789C70.6771 35.902 70.7031 35.934 70.8181 35.934H70.9901C71.3901 35.934 71.6051 35.773 71.6921 35.362L71.8121 34.79C71.8991 34.38 71.7531 34.218 71.3521 34.218H71.1801C71.0661 34.218 71.0261 34.25 71.0021 34.363ZM74.7401 35.241L75.5901 36.176C76.0361 36.659 76.0981 36.949 75.9841 37.489L75.9541 37.634C75.7391 38.649 75.2271 39.213 74.0401 39.213C72.8541 39.213 72.5611 38.738 72.8351 37.44L72.8691 37.28C72.9191 37.046 72.9981 36.981 73.2351 36.981H73.7911C74.0291 36.981 74.0811 37.046 74.0311 37.279L73.9561 37.634C73.8881 37.956 73.9921 38.085 74.2781 38.085C74.5651 38.085 74.7211 37.965 74.7831 37.675L74.8151 37.521C74.8631 37.295 74.8371 37.183 74.5911 36.917L73.7911 36.055C73.3431 35.58 73.2861 35.305 73.4001 34.765L73.4371 34.589C73.6521 33.574 74.1641 33.009 75.3501 33.009C76.5371 33.009 76.8301 33.485 76.5561 34.782L76.5221 34.943C76.4721 35.177 76.3931 35.241 76.1561 35.241H75.5991C75.3621 35.241 75.3101 35.177 75.3591 34.943L75.4341 34.589C75.5021 34.266 75.3991 34.138 75.1121 34.138C74.8261 34.138 74.6691 34.258 74.6081 34.548L74.5791 34.685C74.5291 34.919 74.5551 35.032 74.7401 35.241ZM79.5321 33.388C79.5821 33.155 79.6601 33.09 79.8981 33.09H80.4211C80.6591 33.09 80.7111 33.155 80.6611 33.388L79.8051 37.441C79.5311 38.738 79.0381 39.213 77.8511 39.213C76.6651 39.213 76.3721 38.738 76.6461 37.44L77.5021 33.388C77.5521 33.155 77.6311 33.09 77.8681 33.09H78.3921C78.6291 33.09 78.6811 33.155 78.6321 33.388L77.7351 37.634C77.6671 37.956 77.7791 38.085 78.0901 38.085C78.3921 38.085 78.5671 37.956 78.6351 37.634L79.5321 33.388ZM82.9381 36.667C82.9411 36.732 82.9621 36.747 83.0031 36.747C83.0431 36.747 83.0721 36.732 83.1021 36.667L84.5161 33.3C84.5851 33.13 84.6671 33.09 84.8721 33.09H85.6661C85.9031 33.09 85.9551 33.155 85.9061 33.388L84.7561 38.834C84.7061 39.068 84.6261 39.132 84.3891 39.132H84.0131C83.7761 39.132 83.7231 39.068 83.7731 38.834L84.3251 36.224C84.3401 36.152 84.3271 36.135 84.2781 36.135C84.2451 36.135 84.2081 36.152 84.1881 36.208L83.0461 38.867C82.9641 39.06 82.8591 39.132 82.6221 39.132H82.4001C82.1541 39.132 82.0801 39.06 82.0801 38.867L82.0521 36.207C82.0471 36.151 82.0341 36.135 81.9931 36.135C81.9441 36.135 81.9241 36.152 81.9091 36.224L81.3581 38.834C81.3081 39.068 81.2301 39.132 80.9921 39.132H80.6161C80.3781 39.132 80.3261 39.068 80.3761 38.834L81.5261 33.388C81.5761 33.155 81.6551 33.09 81.8921 33.09H82.5721C82.8581 33.09 82.9501 33.155 82.9481 33.437L82.9371 36.667H82.9381ZM100 2.25C100 3.355 99.1101 4.25 98.0131 4.25C97.7513 4.24921 97.4922 4.19685 97.2506 4.0959C97.009 3.99496 96.7897 3.8474 96.6052 3.66167C96.4207 3.47594 96.2746 3.25567 96.1752 3.01345C96.0758 2.77123 96.0252 2.51181 96.0261 2.25C96.0261 1.145 96.9161 0.25 98.0131 0.25C99.1101 0.25 100 1.145 100 2.25Z" fill="white" fill-opacity="0.6"/>
</svg>
