<svg width="40" height="41" viewBox="0 0 40 41" fill="none" xmlns="http://www.w3.org/2000/svg">
<path fill-rule="evenodd" clip-rule="evenodd" d="M10 0.25C15.5228 0.25 20 4.72715 20 10.25V0.25H30C35.5228 0.25 40 4.72715 40 10.25C40 15.7728 35.5228 20.25 30 20.25C35.5228 20.25 40 24.7272 40 30.25C40 32.9923 38.8961 35.4768 37.1085 37.2834L37.0711 37.3211L37.0379 37.3541C35.2309 39.1443 32.7446 40.25 30 40.25C27.2741 40.25 24.8029 39.1593 22.999 37.3905C22.9756 37.3675 22.9522 37.3443 22.9289 37.3211C22.907 37.2992 22.8852 37.2772 22.8635 37.2551C21.0924 35.4509 20 32.978 20 30.25C20 35.7728 15.5228 40.25 10 40.25C4.47715 40.25 0 35.7728 0 30.25V20.25H10C4.47715 20.25 0 15.7728 0 10.25C0 4.72715 4.47715 0.25 10 0.25ZM18 10.25C18 14.6683 14.4183 18.25 10 18.25V2.25C14.4183 2.25 18 5.83172 18 10.25ZM38 30.25C38 25.8317 34.4183 22.25 30 22.25C25.5817 22.25 22 25.8317 22 30.25H38ZM2 22.25V30.25C2 34.6683 5.58172 38.25 10 38.25C14.4183 38.25 18 34.6683 18 30.25V22.25H2ZM22 18.25V2.25H30C34.4183 2.25 38 5.83172 38 10.25C38 14.6683 34.4183 18.25 30 18.25H22Z" fill="white" fill-opacity="0.6"/>
</svg>
