<svg width="146" height="52" viewBox="0 0 146 52" fill="none" xmlns="http://www.w3.org/2000/svg">
<path fill-rule="evenodd" clip-rule="evenodd" d="M73 51.1155C112.828 51.1155 145.115 39.815 145.115 25.8751C145.115 11.9352 112.828 0.634766 73 0.634766C33.1718 0.634766 0.884613 11.9352 0.884613 25.8751C0.884613 39.815 33.1718 51.1155 73 51.1155ZM23.9367 32.4532V15.0578H21.0769V32.4532H23.9367ZM25.687 26.6547C25.687 30.2086 28.078 32.7338 31.7113 32.7338C35.3446 32.7338 37.7355 30.2086 37.7355 26.6547C37.7355 23.1008 35.3446 20.5757 31.7113 20.5757C28.078 20.5757 25.687 23.1008 25.687 26.6547ZM44.1356 32.2194C40.8773 32.2194 38.6973 29.7878 38.6973 26.4209C38.6973 23.0307 40.9242 20.5289 44.2293 20.5289C45.9405 20.5289 47.3938 21.2538 48.097 22.4696L48.2611 20.903H50.7927V31.8687C50.7927 35.6798 48.4018 38.1347 44.6513 38.1347C41.4633 38.1347 39.1427 36.1708 38.7677 33.1546H41.6509C41.8149 34.6744 43.0339 35.5395 44.8153 35.5395C46.8078 35.5395 48.0033 34.2769 48.0033 32.383V30.4191C47.2766 31.5413 45.8233 32.2194 44.1356 32.2194ZM52.2079 26.6547C52.2079 30.2086 54.5989 32.7338 58.2322 32.7338C61.8655 32.7338 64.2564 30.2086 64.2564 26.6547C64.2564 23.1008 61.8655 20.5757 58.2322 20.5757C54.5989 20.5757 52.2079 23.1008 52.2079 26.6547ZM69.0625 16.8348C69.0625 17.7934 68.289 18.5416 67.3513 18.5416C66.3903 18.5416 65.6636 17.7934 65.6636 16.8348C65.6636 15.8995 66.3903 15.1513 67.3513 15.1513C68.289 15.1513 69.0625 15.8995 69.0625 16.8348ZM68.7812 20.903V32.4532H65.9215V20.903H68.7812ZM71.2866 37.8074H74.0761V30.8633C74.8027 32.0557 76.3732 32.7571 78.1079 32.7571C81.5302 32.7571 83.5695 30.1385 83.5226 26.5378C83.4523 22.9138 81.3661 20.5523 78.0844 20.5523C76.3264 20.5523 74.7324 21.3239 74.0292 22.6566L73.8651 20.903H71.2866V37.8074ZM88.89 32.7571C86.124 32.7571 84.3425 31.2841 84.2488 28.9928H86.8507C86.8507 29.9982 87.5773 30.5827 88.8431 30.5827C89.898 30.5827 90.7653 30.1619 90.7653 29.25C90.7653 28.5953 90.2964 28.2446 89.5463 28.0342L87.5305 27.5198C85.3036 26.9353 84.4363 25.6961 84.4363 24.1997C84.4363 22.0019 86.2881 20.5523 88.7728 20.5523C91.2809 20.5523 92.9921 22.0019 93.0859 24.2933H90.484C90.484 23.2879 89.7807 22.68 88.7025 22.68C87.6711 22.68 87.0382 23.2411 87.0382 24.0361C87.0382 24.7843 87.6242 25.0882 88.4915 25.322L90.5309 25.813C92.4296 26.2806 93.4609 27.4029 93.4609 29.063C93.4609 31.3075 91.6091 32.7571 88.89 32.7571ZM99.393 32.7571C100.963 32.7571 102.463 32.0323 103.143 30.9568L103.331 32.4532H106.003V20.903H103.143V26.9587C103.143 29.0396 102.346 30.2086 100.471 30.2086C99.018 30.2086 98.01 29.5072 98.01 27.1224V20.903H95.1499V28.1277C95.1499 30.8867 96.6501 32.7571 99.393 32.7571ZM111.387 25.813V32.4532H108.527V20.903H111.152L111.293 22.2124C111.973 21.1836 113.192 20.5523 114.551 20.5523C116.473 20.5523 117.739 21.394 118.372 22.7501C118.935 21.394 120.318 20.5523 122.076 20.5523C124.889 20.5523 126.365 22.2358 126.365 24.9012V32.4532H123.599V25.5558C123.599 23.9192 122.709 23.0541 121.326 23.0541C119.966 23.0541 118.888 23.9426 118.888 25.8364V32.4532H116.098V25.5558C116.098 23.9192 115.208 23.0541 113.848 23.0541C112.489 23.0541 111.387 23.9426 111.387 25.813Z" fill="white" fill-opacity="0.6"/>
</svg>
